# xmcd
#
# Track frame offsets:
#	150
#	13987
#	26087
#	42712
#	54850
#	69625
#	81087
#	90525
#	105062
#	117562
#	131387
#	141037
#	157962
#	168450
#	178262
#	189937
#	203637
#
# Disc length: 2856 seconds
#
# Revision: 1
# Processed by: cddbd v1.5.1PL0 Copyright (c) Steve Scherf et al.
# Submitted via: audiograbber 1.83.01
#
DISCID=e00b2611
DTITLE=Various Artist - Das Wunschkonzert Der Volksmusik Cd 03
DYEAR=1996
DGENRE=Volksmusik Deutsch
TTITLE0=Edith Prock - Nimm Die Stunden Wie Sie Kommen
TTITLE1=Alfons Bauer Und Seine Almdudler - Salzburger Glockenspiel
TTITLE2=Erich Kunz - Stellts Meine Ross In Stall
TTITLE3=Lolita - Das Frauenkäferl
TTITLE4=Michael David - Liebeslied
TTITLE5=Margot Hellwig - Mei Hoamatlandl
TTITLE6=Keferloher Musikanten - Fidele Musikanten (Marsch)
TTITLE7=Michl Lang - Walzer Für Ältere Herrschaften
TTITLE8=Maria Und Margot Hellwig - München Meine Märchenstadt
TTITLE9=Alfons Bauer and Sein Orchester - Von Herz Zu Herz (Walzer)
TTITLE10=Patrick Lindner - Im Leben Geht Alles Vorüber
TTITLE11=Maria Tiboldi - Romanze In Budapest
TTITLE12=Georg Schwenk - Kirmespolka
TTITLE13=Teddy Parker - Gold and Silber
TTITLE14=Alfons Bauer and Seine Funkschrammeln - Beim Heurigen Marsch
TTITLE15=Edith Prock - S' Ist Feierobn'd
TTITLE16=Rita Bauer (Almglocken) and Die Almdudler - Schneewalzer
EXTD=
EXTT0=
EXTT1=
EXTT2=
EXTT3=
EXTT4=
EXTT5=
EXTT6=
EXTT7=
EXTT8=
EXTT9=
EXTT10=
EXTT11=
EXTT12=
EXTT13=
EXTT14=
EXTT15=
EXTT16=
PLAYORDER=
